<?xml version="1.0" standalone="no"?>
<!DOCTYPE svg PUBLIC "-//W3C//DTD SVG 20010904//EN"
 "http://www.w3.org/TR/2001/REC-SVG-20010904/DTD/svg10.dtd">
<svg version="1.0" xmlns="http://www.w3.org/2000/svg"
 width="750.000000pt" height="500.000000pt" viewBox="0 0 750.000000 500.000000"
 preserveAspectRatio="xMidYMid meet">

<g transform="translate(0.000000,500.000000) scale(0.100000,-0.100000)"
fill="#000000" stroke="none">
<path d="M3180 4880 c-24 -24 -25 -34 -4 -54 20 -20 97 -21 114 -1 16 20 4 50
-26 63 -36 17 -61 15 -84 -8z"/>
<path d="M3050 4883 c-23 -9 -39 -35 -40 -64 0 -15 -9 -46 -20 -70 -25 -56
-25 -81 0 -104 27 -24 55 -22 132 14 84 39 93 59 52 127 -54 88 -85 112 -124
97z"/>
<path d="M1885 4857 c-51 -43 -36 -137 21 -137 52 0 68 88 25 142 l-17 20 -29
-25z"/>
<path d="M1995 4856 c-20 -30 -23 -99 -6 -120 31 -37 91 -3 91 51 0 34 -20 70
-46 82 -21 9 -26 7 -39 -13z"/>
<path d="M6463 4839 c-24 -9 -38 -47 -29 -76 10 -28 112 -133 131 -133 21 0
123 107 131 137 9 32 -4 62 -29 67 -47 10 -183 13 -204 5z"/>
<path d="M819 4819 c-29 -29 -23 -52 32 -118 76 -89 87 -90 161 -6 55 61 65
88 44 120 -15 23 -21 24 -117 24 -86 -1 -104 -4 -120 -20z"/>
<path d="M3732 4823 c-5 -10 -12 -34 -16 -55 -5 -30 -2 -41 18 -64 21 -25 26
-27 50 -16 44 20 47 85 6 130 -25 26 -46 28 -58 5z"/>
<path d="M4339 4819 c-18 -18 -19 -23 -6 -42 20 -30 85 -35 117 -9 l24 19 -27
27 c-32 32 -78 35 -108 5z"/>
<path d="M3611 4804 c-40 -51 -17 -124 40 -124 35 0 54 36 43 84 -15 69 -48
85 -83 40z"/>
<path d="M4192 4807 c-12 -13 -22 -36 -22 -53 0 -16 -6 -41 -14 -56 -27 -51
-29 -85 -7 -107 29 -29 64 -25 141 12 81 40 86 60 36 138 -64 96 -92 111 -134
66z"/>
<path d="M2546 4799 c-40 -31 -30 -89 15 -89 22 0 69 38 79 64 17 46 -46 63
-94 25z"/>
<path d="M4865 4806 c-20 -14 -20 -14 1 -43 30 -41 69 -61 91 -47 10 6 19 20
21 31 7 48 -72 90 -113 59z"/>
<path d="M5364 4793 c-45 -48 -24 -133 32 -133 30 0 44 20 44 61 0 83 -35 117
-76 72z"/>
<path d="M5485 4796 c-9 -13 -18 -39 -21 -58 -13 -75 68 -106 96 -37 11 26 11
36 -3 64 -9 19 -25 39 -36 45 -17 9 -23 6 -36 -14z"/>
<path d="M3243 4790 c-31 -13 -31 -63 -1 -84 30 -22 114 -21 122 0 8 20 -7 47
-40 73 -29 23 -46 25 -81 11z"/>
<path d="M1786 4758 c-22 -31 -20 -74 4 -98 48 -48 98 0 67 65 -23 48 -51 61
-71 33z"/>
<path d="M2086 4748 c-22 -36 -28 -66 -16 -88 24 -44 90 -9 90 48 0 58 -46 83
-74 40z"/>
<path d="M2658 4754 c-32 -17 -46 -57 -28 -79 25 -30 117 -8 139 33 12 23 3
38 -32 51 -36 14 -46 13 -79 -5z"/>
<path d="M4775 4763 c-54 -14 -60 -54 -12 -83 77 -47 152 -3 100 58 -19 23
-56 33 -88 25z"/>
<path d="M3827 4711 c-33 -56 -13 -110 37 -97 34 8 52 57 36 96 -16 40 -50 40
-73 1z"/>
<path d="M4396 4724 c-47 -46 9 -100 95 -92 46 4 50 34 10 76 -33 36 -79 43
-105 16z"/>
<path d="M3524 4705 c-22 -34 -8 -84 28 -104 56 -32 80 41 32 98 -31 38 -39
38 -60 6z"/>
<path d="M1886 4654 c-33 -39 -56 -75 -56 -89 0 -24 23 -54 43 -56 45 -5 194
5 205 13 27 23 14 75 -35 130 -77 88 -83 88 -157 2z"/>
<path d="M2433 4705 c-29 -20 -30 -58 -3 -110 11 -22 20 -48 20 -58 0 -21 18
-59 34 -69 24 -17 65 -8 85 18 12 15 21 31 21 36 0 5 11 26 25 46 14 20 25 44
25 53 0 24 -34 50 -92 71 -80 29 -91 30 -115 13z"/>
<path d="M5275 4704 c-8 -9 -15 -32 -15 -53 0 -64 55 -93 86 -46 11 17 10 26
-5 61 -21 47 -44 60 -66 38z"/>
<path d="M5581 4696 c-29 -31 -38 -88 -17 -105 41 -34 94 20 81 81 -10 42 -37
53 -64 24z"/>
<path d="M757 4692 c-23 -26 -23 -98 1 -110 24 -13 40 -5 57 28 37 71 -10 135
-58 82z"/>
<path d="M1042 4698 c-16 -16 -15 -53 3 -87 29 -58 79 -43 79 23 0 57 -50 96
-82 64z"/>
<path d="M4945 4688 c-89 -35 -102 -60 -62 -123 12 -19 31 -50 42 -68 16 -25
29 -33 57 -35 32 -3 39 1 52 27 9 16 16 38 16 48 0 10 9 36 20 58 51 100 -4
141 -125 93z"/>
<path d="M6390 4683 c-24 -31 -21 -76 6 -103 14 -13 18 -12 45 18 31 34 38 79
17 100 -20 20 -45 14 -68 -15z"/>
<path d="M6682 4698 c-26 -26 -4 -107 33 -122 44 -16 64 90 23 118 -27 19 -40
20 -56 4z"/>
<path d="M3192 4668 c-33 -33 11 -98 67 -98 33 0 71 26 71 48 0 40 -109 79
-138 50z"/>
<path d="M3674 4663 c-33 -38 -77 -99 -85 -121 -9 -25 5 -68 27 -76 7 -3 54
-2 105 1 99 7 129 22 129 65 0 25 -118 148 -143 148 -9 0 -24 -8 -33 -17z"/>
<path d="M2688 4634 c-21 -11 -28 -22 -28 -44 0 -32 23 -50 64 -50 25 0 86 52
86 74 0 36 -71 48 -122 20z"/>
<path d="M4702 4638 c-19 -19 -14 -34 19 -67 32 -32 65 -39 100 -21 19 11 25
45 11 67 -18 29 -108 43 -130 21z"/>
<path d="M5383 4599 c-60 -63 -71 -91 -49 -124 9 -14 24 -25 34 -25 9 0 55 -2
101 -4 71 -3 86 -1 102 15 27 27 24 66 -9 97 -15 15 -38 42 -51 60 -34 49 -68
44 -128 -19z"/>
<path d="M835 4610 c-23 -25 -23 -71 -1 -105 37 -56 75 -38 83 39 9 73 -40
112 -82 66z"/>
<path d="M955 4610 c-21 -24 -16 -103 8 -127 48 -48 108 76 62 127 -23 25 -47
25 -70 0z"/>
<path d="M3098 4619 c-18 -10 -24 -45 -10 -65 21 -32 91 -45 111 -20 31 37
-58 110 -101 85z"/>
<path d="M6471 4604 c-27 -34 -26 -53 2 -95 32 -47 54 -49 72 -5 19 45 19 76
-1 104 -20 29 -48 28 -73 -4z"/>
<path d="M6595 4614 c-21 -22 -16 -107 8 -131 14 -15 18 -15 41 1 36 23 48 73
27 111 -20 35 -51 43 -76 19z"/>
<path d="M4352 4608 c-17 -17 -15 -42 7 -69 34 -43 131 -26 131 22 0 41 -108
77 -138 47z"/>
<path d="M1461 4586 c-16 -19 -1 -47 39 -76 37 -26 67 -19 76 17 13 51 -82 98
-115 59z"/>
<path d="M5940 4580 c-24 -24 -26 -53 -4 -74 19 -20 18 -19 54 -1 31 16 60 62
53 83 -8 20 -80 15 -103 -8z"/>
<path d="M4252 4558 c-32 -32 13 -98 66 -98 60 0 63 44 6 89 -30 24 -54 27
-72 9z"/>
<path d="M1354 4540 c-45 -18 -35 -54 24 -84 47 -25 84 -18 97 18 8 25 6 31
-18 52 -29 24 -65 29 -103 14z"/>
<path d="M6045 4528 c-22 -20 -27 -30 -21 -51 9 -36 46 -45 97 -21 73 33 70
80 -7 91 -33 4 -46 1 -69 -19z"/>
<path d="M2622 4518 c-32 -32 -3 -78 50 -78 55 0 90 58 49 80 -27 14 -84 13
-99 -2z"/>
<path d="M4778 4519 c-40 -23 -4 -79 50 -79 53 0 82 46 50 78 -15 15 -76 15
-100 1z"/>
<path d="M1542 4467 c-82 -35 -98 -60 -69 -106 9 -14 26 -45 38 -68 44 -84
139 -70 139 20 0 13 9 45 21 71 20 46 19 76 -4 94 -28 22 -55 20 -125 -11z"/>
<path d="M5835 4475 c-30 -29 -30 -37 -5 -94 11 -24 20 -56 20 -73 0 -39 42
-82 73 -73 36 11 117 122 117 162 0 23 -25 48 -60 58 -14 4 -41 16 -60 26 -45
25 -56 24 -85 -6z"/>
<path d="M6123 4429 c-43 -9 -63 -26 -63 -54 0 -56 77 -66 122 -16 16 18 28
40 26 49 -4 20 -44 30 -85 21z"/>
<path d="M1297 4423 c-23 -22 22 -83 71 -98 56 -17 97 57 50 89 -22 16 -108
22 -121 9z"/>
<path d="M2592 4368 c-16 -20 -3 -65 28 -98 31 -34 51 -37 74 -14 31 31 15 84
-34 109 -35 18 -54 19 -68 3z"/>
<path d="M2729 4339 c-20 -39 16 -119 55 -119 15 0 36 35 36 60 0 56 -68 101
-91 59z"/>
<path d="M2070 4320 c-8 -5 -28 -21 -45 -35 -16 -15 -46 -37 -65 -49 -25 -16
-36 -30 -38 -52 -5 -51 32 -72 165 -91 51 -7 58 3 67 110 7 73 6 78 -18 102
-27 27 -42 30 -66 15z"/>
<path d="M1388 4308 c-47 -17 -29 -70 28 -84 59 -15 104 65 48 86 -30 12 -40
12 -76 -2z"/>
<path d="M2507 4309 c-38 -22 -8 -118 43 -134 30 -10 60 12 60 43 0 53 -66
111 -103 91z"/>
<path d="M3223 4309 c-28 -28 39 -94 88 -87 33 4 38 49 10 77 -23 23 -80 28
-98 10z"/>
<path d="M4255 4300 c-36 -40 16 -81 83 -64 27 6 38 15 40 31 7 47 -87 72
-123 33z"/>
<path d="M5355 4298 c-12 -18 -14 -38 -9 -98 9 -103 16 -114 67 -107 125 18
167 39 167 83 0 13 -12 32 -31 46 -17 13 -50 40 -73 61 -52 44 -96 50 -121 15z"/>
<path d="M6033 4310 c-45 -18 -20 -89 30 -90 35 0 77 29 77 55 0 19 -7 26 -37
34 -44 12 -41 12 -70 1z"/>
<path d="M4106 4288 c-9 -12 -16 -32 -16 -44 0 -12 -10 -47 -21 -78 -41 -106
8 -139 126 -85 72 32 85 43 85 69 0 16 -57 112 -84 143 -23 25 -71 22 -90 -5z"/>
<path d="M4840 4299 c-41 -17 -60 -40 -60 -74 0 -64 58 -74 97 -16 27 40 30
86 7 95 -9 3 -16 6 -17 5 -1 0 -13 -5 -27 -10z"/>
<path d="M4692 4257 c-37 -40 -25 -107 20 -107 46 0 68 121 23 128 -12 2 -30
-8 -43 -21z"/>
<path d="M3108 4259 c-39 -22 -2 -80 59 -95 36 -9 73 11 73 39 0 52 -81 86
-132 56z"/>
<path d="M2186 4234 c-22 -22 -20 -31 14 -65 23 -24 37 -30 62 -27 30 3 33 6
31 33 -2 33 -43 75 -73 75 -10 0 -26 -7 -34 -16z"/>
<path d="M5229 4220 c-40 -39 -37 -74 7 -78 62 -6 113 72 65 98 -30 15 -40 13
-72 -20z"/>
<path d="M4914 4212 c-38 -34 -49 -64 -34 -92 15 -28 61 -26 89 4 17 18 22 33
19 67 -4 55 -29 62 -74 21z"/>
<path d="M2626 4198 c-8 -14 -14 -54 -15 -100 -1 -72 0 -78 25 -97 32 -26 57
-20 99 20 17 16 45 39 64 51 50 34 59 52 41 86 -12 21 -29 31 -80 44 -91 23
-117 22 -134 -4z"/>
<path d="M3308 4191 c-101 -49 -107 -66 -58 -141 58 -89 59 -90 95 -90 39 0
65 28 65 71 0 15 9 48 21 74 24 55 19 87 -16 103 -35 16 -41 15 -107 -17z"/>
<path d="M4312 4208 c-17 -17 -15 -54 3 -72 23 -23 103 -32 121 -14 19 19 5
59 -28 82 -27 19 -79 21 -96 4z"/>
<path d="M2478 4164 c-23 -23 25 -104 62 -104 51 0 69 49 31 84 -21 19 -82 32
-93 20z"/>
<path d="M3078 4153 c-43 -10 -21 -73 35 -101 60 -29 120 47 65 81 -26 16 -74
26 -100 20z"/>
<path d="M3673 4134 c-57 -28 -52 -66 11 -78 48 -9 86 8 86 38 0 43 -48 64
-97 40z"/>
<path d="M4736 4131 c-84 -21 -115 -51 -96 -93 7 -13 26 -33 43 -43 18 -10 49
-34 70 -52 45 -40 81 -41 108 -3 16 22 17 36 11 104 -6 59 -13 82 -27 92 -22
16 -20 17 -109 -5z"/>
<path d="M948 4121 c-53 -42 -43 -115 14 -109 38 4 69 42 71 89 2 31 -1 34
-29 37 -19 2 -40 -5 -56 -17z"/>
<path d="M2178 4129 c-31 -18 -23 -67 18 -105 41 -39 59 -42 75 -13 32 60 -39
150 -93 118z"/>
<path d="M5257 4120 c-30 -24 -44 -78 -28 -109 16 -29 34 -26 75 13 42 39 49
88 17 106 -27 14 -35 13 -64 -10z"/>
<path d="M6465 4130 c-10 -16 4 -66 26 -95 41 -51 109 -22 93 40 -12 48 -99
88 -119 55z"/>
<path d="M3838 4123 c-19 -5 -98 -135 -98 -162 0 -20 30 -51 49 -51 6 0 31 -9
53 -20 52 -25 90 -25 111 -2 22 24 21 52 -2 104 -11 24 -22 55 -26 71 -6 31
-38 68 -57 66 -7 -1 -21 -3 -30 -6z"/>
<path d="M830 4100 c-44 -44 -33 -114 18 -108 20 2 30 12 40 40 27 72 -10 116
-58 68z"/>
<path d="M6604 4095 c-7 -28 2 -73 18 -92 16 -19 56 -15 68 6 16 32 12 60 -15
86 -32 33 -63 33 -71 0z"/>
<path d="M4278 4099 c-35 -20 -8 -96 35 -100 96 -9 128 45 52 88 -44 25 -61
27 -87 12z"/>
<path d="M4943 4085 c-65 -28 -66 -95 -2 -95 38 0 71 36 67 75 -4 35 -20 40
-65 20z"/>
<path d="M1046 4046 c-54 -50 -46 -106 15 -106 49 0 84 70 63 124 -10 25 -40
19 -78 -18z"/>
<path d="M1952 4052 c-12 -34 0 -66 32 -88 38 -24 56 -12 56 36 0 57 -14 80
-49 80 -23 0 -31 -6 -39 -28z"/>
<path d="M5472 4063 c-17 -34 -22 -74 -12 -93 14 -27 32 -25 64 6 28 28 34 72
14 92 -18 18 -56 15 -66 -5z"/>
<path d="M6376 4064 c-21 -54 14 -124 63 -124 61 0 69 56 15 106 -38 37 -68
43 -78 18z"/>
<path d="M2076 4054 c-26 -26 -20 -69 15 -98 31 -27 82 -35 94 -15 11 16 -24
97 -48 114 -27 19 -42 19 -61 -1z"/>
<path d="M5364 4056 c-26 -18 -59 -90 -51 -110 11 -27 65 -20 98 13 32 33 38
71 13 95 -19 20 -34 20 -60 2z"/>
<path d="M4163 4034 c-17 -46 40 -101 91 -88 37 9 39 30 5 69 -34 39 -84 49
-96 19z"/>
<path d="M3150 4027 c-32 -16 -32 -45 2 -70 29 -22 65 -18 92 9 21 20 20 30
-4 54 -23 23 -54 25 -90 7z"/>
<path d="M3596 4009 c-31 -37 -33 -55 -5 -69 41 -23 129 13 129 53 0 33 -19
47 -61 47 -29 0 -43 -7 -63 -31z"/>
<path d="M1510 4013 c-41 -2 -80 -9 -87 -15 -28 -23 -15 -73 35 -130 26 -31
55 -58 66 -61 19 -6 66 11 66 24 0 4 18 29 40 54 23 27 40 57 40 71 0 31 -34
65 -62 62 -13 -1 -57 -4 -98 -5z"/>
<path d="M5848 3998 c-30 -30 -22 -62 35 -127 69 -81 87 -81 157 0 54 62 67
106 41 132 -6 6 -56 12 -112 12 -87 2 -105 -1 -121 -17z"/>
<path d="M855 3973 c-66 -20 -87 -39 -83 -77 2 -24 13 -38 51 -62 27 -18 58
-41 70 -52 38 -34 64 -36 92 -8 24 24 25 29 19 98 -10 120 -33 136 -149 101z"/>
<path d="M6520 3970 c-11 -11 -20 -32 -20 -47 0 -16 -3 -50 -6 -78 -5 -42 -2
-54 15 -72 31 -33 60 -28 115 17 26 22 52 40 57 40 19 0 49 41 49 68 0 33 -27
62 -57 62 -11 0 -40 7 -63 15 -55 20 -66 19 -90 -5z"/>
<path d="M1072 3923 c-58 -30 -57 -93 2 -93 42 0 79 40 74 79 -4 32 -30 37
-76 14z"/>
<path d="M6357 3933 c-13 -13 -7 -51 13 -75 23 -30 47 -38 79 -27 17 7 22 15
19 36 -5 42 -87 91 -111 66z"/>
<path d="M3648 3908 c-46 -27 -53 -43 -28 -68 31 -31 93 -27 119 6 26 33 26
46 3 67 -25 22 -49 21 -94 -5z"/>
<path d="M1357 3862 c-21 -23 -22 -85 -2 -102 23 -19 47 -8 68 33 16 31 18 43
9 63 -14 29 -51 32 -75 6z"/>
<path d="M1642 3868 c-18 -18 -15 -49 8 -85 32 -53 80 -36 80 29 0 52 -56 88
-88 56z"/>
<path d="M5786 3858 c-31 -44 -11 -114 30 -106 10 2 28 20 39 40 16 30 17 40
7 62 -15 33 -55 35 -76 4z"/>
<path d="M6068 3854 c-10 -22 -9 -32 9 -63 11 -20 29 -38 39 -40 22 -4 44 25
44 59 0 63 -68 96 -92 44z"/>
<path d="M3759 3841 c-36 -36 -37 -58 -4 -71 37 -14 92 11 101 44 14 58 -48
75 -97 27z"/>
<path d="M2073 3835 c-28 -20 -31 -69 -6 -84 35 -19 105 32 100 74 -3 26 -63
32 -94 10z"/>
<path d="M2584 3825 c-43 -43 -25 -135 28 -135 40 0 61 70 37 124 -17 36 -37
39 -65 11z"/>
<path d="M2713 3842 c-16 -10 -33 -57 -33 -91 0 -30 27 -61 53 -61 18 0 57 46
57 67 0 42 -53 100 -77 85z"/>
<path d="M4745 3826 c-36 -36 -42 -72 -18 -104 26 -35 57 -39 77 -10 19 26 20
40 6 90 -13 46 -35 54 -65 24z"/>
<path d="M4866 3837 c-19 -14 -31 -75 -22 -111 8 -34 50 -45 76 -21 49 45 -3
169 -54 132z"/>
<path d="M5333 3834 c-16 -43 67 -113 102 -84 21 17 19 56 -5 80 -25 25 -88
28 -97 4z"/>
<path d="M4255 3830 c-32 -12 -47 -36 -43 -67 5 -42 48 -44 88 -4 35 34 38 56
11 71 -23 12 -29 12 -56 0z"/>
<path d="M1436 3778 c-22 -31 -20 -70 5 -102 40 -50 82 -22 82 56 0 21 -6 44
-13 53 -18 22 -57 18 -74 -7z"/>
<path d="M1554 3775 c-19 -30 -13 -82 14 -115 l18 -22 29 25 c51 43 36 137
-21 137 -14 0 -30 -10 -40 -25z"/>
<path d="M2172 3780 c-24 -23 -29 -59 -10 -78 18 -18 59 -14 96 8 44 27 51 49
23 72 -31 24 -82 23 -109 -2z"/>
<path d="M5230 3787 c-14 -7 -25 -21 -25 -32 0 -24 59 -65 94 -65 55 0 69 54
25 89 -30 24 -58 26 -94 8z"/>
<path d="M5866 3778 c-25 -36 -20 -76 15 -110 26 -26 32 -29 44 -17 24 25 36
89 22 118 -17 35 -60 40 -81 9z"/>
<path d="M5984 3775 c-16 -24 -13 -68 8 -107 20 -40 72 -9 84 50 14 68 -56
111 -92 57z"/>
<path d="M4332 3764 c-29 -20 -30 -69 -1 -84 38 -21 129 22 129 60 0 39 -85
55 -128 24z"/>
<path d="M1964 3736 c-32 -23 -34 -48 -8 -102 13 -27 24 -57 24 -67 0 -10 7
-31 15 -47 12 -23 23 -30 45 -30 36 0 49 13 95 96 37 66 37 66 19 91 -17 21
-87 54 -149 69 -11 3 -30 -2 -41 -10z"/>
<path d="M2496 3734 c-23 -22 -21 -87 3 -108 29 -27 65 -17 69 18 7 62 -41
122 -72 90z"/>
<path d="M2796 3719 c-29 -34 -34 -80 -11 -99 20 -17 45 -9 67 21 24 32 17 83
-12 99 -15 8 -23 4 -44 -21z"/>
<path d="M4955 3724 c-40 -43 -30 -114 15 -114 44 0 68 90 34 124 -20 21 -21
21 -49 -10z"/>
<path d="M5435 3728 c-85 -35 -93 -40 -99 -61 -5 -20 50 -132 81 -162 23 -24
68 -19 87 10 9 13 16 32 16 42 1 10 11 42 24 72 26 60 24 84 -7 106 -27 19
-40 18 -102 -7z"/>
<path d="M3179 3729 c-34 -13 -57 -62 -39 -84 20 -24 59 -18 91 14 34 34 37
56 10 71 -23 12 -27 12 -62 -1z"/>
<path d="M4639 3713 c-5 -15 -8 -37 -5 -49 19 -76 107 -68 92 8 -13 65 -68 91
-87 41z"/>
<path d="M4122 3714 c-26 -18 -29 -56 -7 -98 8 -16 18 -47 21 -70 8 -51 29
-76 64 -76 28 0 70 32 70 54 0 8 6 19 14 25 27 22 48 79 37 100 -11 20 -131
81 -160 81 -9 0 -27 -7 -39 -16z"/>
<path d="M2599 3638 c-55 -60 -70 -93 -58 -126 12 -32 42 -39 147 -33 98 6
112 13 112 59 0 39 -98 152 -131 152 -12 0 -41 -22 -70 -52z"/>
<path d="M4802 3673 c-45 -39 -102 -115 -102 -137 0 -47 18 -56 122 -60 114
-4 138 6 138 57 0 25 -13 46 -59 95 -32 34 -63 62 -69 62 -5 0 -19 -8 -30 -17z"/>
<path d="M2205 3657 c-33 -28 -28 -63 12 -78 37 -14 49 -11 83 17 23 20 30 34
28 53 -3 23 -8 26 -49 29 -37 2 -52 -2 -74 -21z"/>
<path d="M3250 3653 c-26 -33 -23 -53 13 -73 25 -14 30 -13 73 9 56 30 65 48
35 73 -36 28 -95 24 -121 -9z"/>
<path d="M5170 3652 c0 -62 102 -104 136 -57 19 26 18 32 -11 60 -19 20 -34
25 -75 25 -48 0 -50 -1 -50 -28z"/>
<path d="M4395 3659 c-77 -23 -68 -99 11 -99 42 0 84 37 84 73 0 36 -32 45
-95 26z"/>
<path d="M3060 3617 c-31 -16 -39 -75 -16 -109 9 -12 16 -35 16 -51 0 -15 7
-42 16 -58 13 -26 20 -30 51 -27 33 3 42 10 80 66 43 64 55 113 31 129 -15 9
-116 53 -138 59 -8 2 -26 -2 -40 -9z"/>
<path d="M2160 3557 c-34 -17 -34 -56 1 -76 29 -16 69 -10 93 15 25 24 19 44
-19 60 -42 17 -43 17 -75 1z"/>
<path d="M3327 3560 c-39 -12 -57 -29 -57 -54 0 -32 19 -46 61 -46 29 0 43 7
63 31 31 36 33 55 7 69 -23 12 -35 12 -74 0z"/>
<path d="M3751 3552 c-61 -30 -66 -122 -7 -122 47 0 103 93 76 125 -16 19 -27
19 -69 -3z"/>
<path d="M5276 3561 c-16 -3 -34 -14 -40 -24 -9 -15 -6 -23 17 -43 32 -28 63
-31 95 -8 54 38 3 91 -72 75z"/>
<path d="M4307 3533 c-25 -28 -21 -50 13 -68 26 -14 34 -14 65 -1 65 28 54 73
-21 83 -30 4 -43 1 -57 -14z"/>
<path d="M3612 3517 c-26 -27 -29 -69 -6 -91 35 -35 77 0 78 67 1 38 -2 42
-24 45 -17 2 -33 -5 -48 -21z"/>
<path d="M3831 3465 c-17 -20 -31 -46 -31 -58 0 -72 102 -57 116 17 15 81 -31
102 -85 41z"/>
<path d="M3242 3440 c-33 -14 -27 -60 9 -77 52 -25 132 28 97 64 -19 18 -77
25 -106 13z"/>
<path d="M871 3417 c-35 -18 -51 -47 -40 -74 13 -35 61 -31 93 8 31 36 33 55
7 69 -25 13 -31 13 -60 -3z"/>
<path d="M1410 3391 c0 -42 40 -95 74 -99 33 -4 46 10 46 51 0 40 -40 77 -85
77 -32 0 -35 -3 -35 -29z"/>
<path d="M6002 3404 c-31 -22 -44 -58 -32 -90 8 -21 15 -25 42 -22 38 4 69 42
71 89 2 31 -1 34 -28 37 -16 1 -40 -5 -53 -14z"/>
<path d="M6557 3413 c-27 -27 33 -97 79 -91 23 2 30 9 32 31 5 40 -22 67 -68
67 -20 0 -40 -3 -43 -7z"/>
<path d="M3655 3398 c-66 -17 -85 -27 -95 -52 -14 -37 -1 -65 41 -87 21 -10
54 -33 74 -50 40 -36 81 -41 103 -13 17 23 11 176 -8 199 -14 17 -54 18 -115
3z"/>
<path d="M1557 3393 c-13 -12 -7 -79 9 -101 21 -30 58 -29 72 3 13 29 7 51
-21 83 -20 22 -47 29 -60 15z"/>
<path d="M5889 3387 c-31 -24 -42 -56 -29 -88 27 -63 94 -19 88 58 -2 29 -8
39 -23 40 -11 2 -27 -3 -36 -10z"/>
<path d="M952 3354 c-32 -22 -30 -71 4 -86 22 -10 33 -9 72 12 51 27 65 56 36
77 -24 18 -85 16 -112 -3z"/>
<path d="M6439 3351 c-30 -25 -20 -46 35 -74 52 -27 90 -15 94 30 2 23 -3 35
-20 47 -31 22 -81 20 -109 -3z"/>
<path d="M1327 3353 c-16 -15 -7 -93 13 -113 24 -24 72 -26 90 -5 34 41 -66
156 -103 118z"/>
<path d="M3853 3340 c-25 -15 -33 -27 -33 -49 0 -57 79 -54 107 3 30 63 -9 86
-74 46z"/>
<path d="M6102 3332 c-56 -52 -51 -112 7 -112 38 0 61 20 70 61 17 76 -23 102
-77 51z"/>
<path d="M2000 3319 c-62 -24 -57 -73 9 -84 49 -8 81 7 81 39 0 39 -46 62 -90
45z"/>
<path d="M5433 3315 c-31 -22 -30 -62 2 -77 34 -15 105 5 105 31 0 42 -70 72
-107 46z"/>
<path d="M742 3313 c-25 -10 -34 -53 -18 -84 8 -16 22 -53 30 -83 32 -109 84
-111 148 -6 27 44 38 73 36 93 -3 27 -10 33 -73 59 -68 27 -96 32 -123 21z"/>
<path d="M6640 3295 c-30 -13 -61 -28 -67 -34 -16 -14 -17 -67 -3 -76 6 -4 22
-28 35 -55 36 -71 77 -89 114 -49 10 11 22 37 26 57 4 20 16 53 26 75 21 40
19 66 -7 92 -21 20 -58 17 -124 -10z"/>
<path d="M2154 3296 c-27 -19 -94 -129 -94 -153 0 -27 25 -46 93 -71 72 -27
99 -28 120 -4 22 24 21 52 -2 104 -11 24 -22 55 -26 71 -6 30 -38 67 -58 67
-7 0 -22 -6 -33 -14z"/>
<path d="M5277 3292 c-9 -10 -20 -34 -23 -53 -4 -19 -15 -51 -25 -71 -26 -52
-24 -84 6 -104 27 -18 40 -16 122 14 96 35 102 53 46 144 -54 87 -92 108 -126
70z"/>
<path d="M1460 3250 c-15 -15 -20 -35 -22 -82 -2 -87 0 -99 19 -120 25 -28 65
-22 99 13 16 17 46 40 67 50 90 47 67 111 -49 140 -88 23 -90 23 -114 -1z"/>
<path d="M5965 3259 c-16 -5 -49 -13 -73 -19 -48 -12 -77 -47 -67 -80 3 -11
30 -35 58 -54 29 -18 61 -43 71 -55 23 -26 67 -27 89 -3 13 14 17 38 17 96 0
68 -3 80 -25 101 -26 27 -26 27 -70 14z"/>
<path d="M1013 3249 c-59 -17 -68 -78 -14 -97 34 -12 84 7 100 37 31 58 -5 83
-86 60z"/>
<path d="M6402 3251 c-21 -13 -10 -62 20 -84 34 -25 75 -25 101 1 17 18 19 25
9 46 -15 34 -98 58 -130 37z"/>
<path d="M4149 3204 c-24 -20 -54 -40 -66 -45 -12 -4 -29 -19 -38 -33 -14 -21
-15 -29 -3 -52 15 -31 25 -37 93 -54 76 -20 95 -18 116 10 27 36 29 162 4 190
-27 29 -58 25 -106 -16z"/>
<path d="M1304 3205 c-8 -21 3 -60 22 -79 20 -21 83 -21 91 0 10 26 -15 64
-52 80 -43 18 -54 18 -61 -1z"/>
<path d="M1916 3191 c-41 -43 -32 -65 27 -69 58 -4 97 17 97 51 0 33 -19 47
-60 47 -27 0 -43 -7 -64 -29z"/>
<path d="M2717 3192 c-45 -47 -32 -122 20 -122 35 0 69 78 56 128 -7 31 -43
28 -76 -6z"/>
<path d="M4704 3196 c-9 -38 14 -105 40 -117 64 -29 94 64 39 116 -36 32 -71
33 -79 1z"/>
<path d="M5472 3208 c-19 -19 -14 -56 11 -72 51 -32 127 -27 127 9 0 7 -12 27
-26 44 -20 24 -34 31 -63 31 -20 0 -42 -5 -49 -12z"/>
<path d="M6119 3197 c-26 -17 -34 -30 -34 -52 0 -27 3 -30 36 -33 41 -3 65 14
75 54 14 56 -20 70 -77 31z"/>
<path d="M2836 3159 c-45 -53 -46 -96 -3 -123 27 -17 71 23 75 68 3 37 -18 86
-37 86 -5 0 -21 -14 -35 -31z"/>
<path d="M4606 3168 c-24 -34 -20 -85 9 -113 28 -29 47 -31 69 -9 28 27 17 73
-27 122 -26 28 -32 28 -51 0z"/>
<path d="M4306 3151 c-14 -15 -15 -24 -6 -40 28 -52 112 -69 118 -23 4 27 -47
82 -76 82 -10 0 -27 -9 -36 -19z"/>
<path d="M2601 3134 c-24 -31 -26 -43 -10 -78 30 -65 100 -21 83 52 -14 58
-41 67 -73 26z"/>
<path d="M4841 3147 c-21 -26 -24 -75 -7 -102 21 -32 51 -32 72 0 34 53 -26
148 -65 102z"/>
<path d="M927 3122 c-25 -27 -18 -54 17 -71 25 -12 33 -11 63 3 63 30 51 73
-23 83 -31 4 -43 1 -57 -15z"/>
<path d="M6480 3127 c-36 -18 -32 -48 10 -71 32 -17 39 -18 65 -5 38 18 44 52
13 73 -27 19 -54 20 -88 3z"/>
<path d="M1975 3092 c-16 -11 -37 -27 -45 -37 -13 -15 -12 -19 9 -36 36 -29
95 -25 120 7 26 33 26 46 3 67 -24 22 -50 21 -87 -1z"/>
<path d="M5436 3094 c-22 -22 -20 -47 7 -72 31 -29 89 -30 118 -1 20 20 20 21
2 41 -41 45 -99 60 -127 32z"/>
<path d="M2709 3041 c-13 -10 -42 -27 -64 -37 -66 -31 -73 -92 -14 -120 40
-19 122 -46 156 -51 26 -4 34 0 49 22 17 25 16 29 -6 97 -34 105 -69 130 -121
89z"/>
<path d="M2896 3039 c-53 -41 -54 -109 -2 -109 49 0 88 84 54 118 -16 16 -21
15 -52 -9z"/>
<path d="M4298 3048 c-8 -7 -18 -21 -21 -30 -7 -21 29 -75 66 -97 27 -15 29
-15 43 3 21 29 17 71 -8 100 -29 31 -59 40 -80 24z"/>
<path d="M4552 3048 c-20 -20 -14 -73 11 -96 47 -45 102 -11 75 45 -17 36 -70
67 -86 51z"/>
<path d="M4713 3043 c-21 -19 -63 -126 -63 -160 0 -26 31 -53 61 -53 13 1 42
9 64 20 22 11 52 19 68 20 15 0 36 9 47 20 42 42 18 86 -73 134 -78 42 -78 42
-104 19z"/>
<path d="M5348 3053 c-30 -7 -34 -51 -7 -79 27 -29 93 -34 103 -8 13 35 -55
96 -96 87z"/>
<path d="M2079 3021 c-35 -36 -37 -58 -6 -72 34 -15 94 11 103 45 14 58 -48
75 -97 27z"/>
<path d="M3363 3026 c-17 -22 -18 -31 -9 -106 9 -67 15 -85 33 -97 20 -13 28
-13 70 1 25 9 56 16 68 16 12 0 32 11 44 24 31 32 22 71 -21 94 -17 9 -51 34
-75 55 -51 43 -84 47 -110 13z"/>
<path d="M4086 2994 c-24 -23 -20 -71 9 -99 30 -31 51 -32 66 -4 20 39 -16
119 -55 119 -2 0 -12 -7 -20 -16z"/>
<path d="M4197 2972 c-25 -27 -21 -60 12 -93 30 -30 83 -40 96 -18 11 16 -24
97 -48 114 -28 20 -40 19 -60 -3z"/>
<path d="M3233 2958 c-38 -43 -39 -88 -1 -88 28 0 76 27 88 49 13 25 13 27 -6
45 -22 23 -57 20 -81 -6z"/>
<path d="M3257 2850 c-45 -36 -44 -120 2 -120 31 0 81 54 81 87 0 53 -38 68
-83 33z"/>
<path d="M1636 2819 c-23 -18 -27 -28 -24 -63 3 -39 4 -41 37 -41 41 0 72 35
74 86 2 31 -1 34 -29 37 -19 2 -40 -5 -58 -19z"/>
<path d="M5773 2803 c10 -56 37 -88 78 -88 33 0 34 2 37 41 3 35 -1 45 -24 63
-16 12 -41 21 -62 21 -34 0 -35 0 -29 -37z"/>
<path d="M3850 2810 c-24 -24 -25 -34 -4 -54 20 -20 97 -21 114 -1 16 20 4 50
-26 63 -36 17 -61 15 -84 -8z"/>
<path d="M1532 2813 c-7 -2 -19 -18 -28 -35 -33 -64 33 -123 71 -64 23 35 17
100 -10 103 -11 1 -26 -1 -33 -4z"/>
<path d="M3480 2800 c-26 -26 -31 -97 -7 -112 14 -9 63 17 71 37 13 34 6 74
-13 85 -26 13 -28 13 -51 -10z"/>
<path d="M3723 2810 c-26 -10 -43 -39 -43 -72 0 -12 -10 -46 -22 -75 -20 -49
-20 -53 -4 -77 23 -36 65 -34 146 7 47 23 66 38 68 54 6 38 -89 176 -118 172
-3 0 -15 -4 -27 -9z"/>
<path d="M5917 2813 c-13 -12 -7 -79 9 -101 29 -42 84 -19 84 36 0 40 -70 89
-93 65z"/>
<path d="M3358 2780 c-32 -25 -52 -94 -32 -111 34 -28 114 27 114 79 0 52 -38
67 -82 32z"/>
<path d="M1743 2755 c-57 -45 -53 -115 6 -115 44 0 73 39 69 91 -4 54 -27 62
-75 24z"/>
<path d="M5687 2773 c-15 -14 -6 -81 14 -107 41 -52 109 -23 93 39 -11 43 -86
90 -107 68z"/>
<path d="M3912 2714 c-29 -20 -29 -59 2 -79 34 -22 120 -17 124 8 4 22 -59 87
-85 87 -10 0 -29 -7 -41 -16z"/>
<path d="M978 2713 c-26 -7 -22 -37 8 -73 21 -25 33 -30 58 -28 26 3 31 7 34
34 5 46 -48 82 -100 67z"/>
<path d="M6454 2708 c-30 -14 -47 -54 -34 -79 16 -28 57 -24 91 10 34 34 37
56 10 71 -24 12 -39 12 -67 -2z"/>
<path d="M1550 2673 c-66 -18 -90 -37 -90 -73 0 -27 26 -60 48 -60 6 0 32 -18
57 -40 55 -47 96 -53 120 -17 12 19 14 40 8 101 -9 111 -24 120 -143 89z"/>
<path d="M5827 2673 c-11 -13 -17 -43 -19 -102 -3 -80 -2 -84 23 -103 30 -22
46 -18 104 29 17 14 46 34 65 47 20 12 36 32 38 44 5 33 -24 72 -52 72 -13 0
-43 7 -66 15 -55 19 -73 19 -93 -2z"/>
<path d="M2835 2645 c-22 -22 -25 -33 -25 -104 0 -107 7 -114 109 -105 95 8
121 23 121 68 0 26 -7 39 -32 58 -18 14 -52 44 -74 67 -48 47 -66 50 -99 16z"/>
<path d="M4560 2623 c-26 -27 -60 -56 -74 -66 -18 -12 -26 -27 -26 -47 0 -49
27 -66 115 -73 118 -9 124 -1 115 127 -4 56 -10 71 -29 87 -34 28 -48 24 -101
-28z"/>
<path d="M847 2642 c-24 -26 -13 -47 39 -72 48 -24 78 -20 95 12 9 16 7 26 -8
47 -26 34 -100 42 -126 13z"/>
<path d="M6538 2643 c-35 -41 -32 -68 10 -84 19 -7 35 -4 69 12 53 25 62 43
38 69 -24 26 -95 27 -117 3z"/>
<path d="M1760 2618 c-38 -26 -48 -51 -30 -73 34 -41 115 8 108 64 -4 35 -35
38 -78 9z"/>
<path d="M5664 2625 c-16 -41 21 -95 65 -95 60 0 64 56 8 91 -38 23 -66 24
-73 4z"/>
<path d="M2709 2606 c-29 -14 -54 -58 -46 -79 13 -35 109 -8 122 33 12 39 -34
67 -76 46z"/>
<path d="M4730 2602 c-29 -23 -20 -56 21 -78 68 -35 115 6 67 59 -32 35 -60
41 -88 19z"/>
<path d="M1042 2578 c-84 -40 -95 -65 -53 -125 17 -24 31 -48 31 -53 0 -20 41
-50 68 -50 37 0 58 24 67 75 4 22 13 50 21 62 22 35 18 89 -8 107 -31 22 -53
19 -126 -16z"/>
<path d="M3862 2598 c-35 -35 10 -98 69 -98 76 1 94 57 29 90 -44 23 -80 26
-98 8z"/>
<path d="M6332 2594 c-26 -18 -29 -61 -8 -102 7 -15 17 -45 21 -67 8 -48 30
-75 61 -75 38 0 54 11 76 53 11 23 29 53 40 67 25 35 11 77 -31 91 -17 6 -47
19 -67 30 -46 23 -63 24 -92 3z"/>
<path d="M2180 2585 c-9 -11 -9 -22 1 -50 19 -51 52 -79 83 -71 51 13 42 92
-13 121 -37 19 -55 19 -71 0z"/>
<path d="M5260 2593 c-33 -12 -60 -47 -60 -78 0 -57 39 -72 86 -32 21 19 27
33 28 68 1 37 -2 44 -19 46 -11 1 -27 -1 -35 -4z"/>
<path d="M2325 2564 c-19 -19 -19 -47 0 -83 17 -34 40 -45 64 -31 26 13 31 43
14 78 -19 39 -57 57 -78 36z"/>
<path d="M5134 2569 c-11 -6 -28 -23 -37 -39 -28 -47 9 -104 52 -80 27 14 46
67 35 98 -11 30 -21 34 -50 21z"/>
<path d="M3768 2549 c-18 -10 -24 -45 -10 -65 11 -17 48 -34 75 -34 52 0 53
48 1 89 -30 23 -41 25 -66 10z"/>
<path d="M813 2543 c-22 -8 -14 -49 13 -77 36 -35 87 -36 109 -2 13 19 14 29
6 45 -15 28 -93 49 -128 34z"/>
<path d="M6607 2540 c-56 -17 -73 -52 -41 -84 25 -26 76 -20 107 12 57 59 21
98 -66 72z"/>
<path d="M2085 2510 c-21 -66 60 -151 103 -108 22 22 14 65 -19 97 -35 36 -75
41 -84 11z"/>
<path d="M5338 2507 c-38 -31 -51 -69 -32 -96 42 -59 129 16 110 94 -8 32 -41
33 -78 2z"/>
<path d="M2690 2480 c-22 -22 -34 -58 -28 -87 6 -32 52 -28 92 7 37 33 46 66
24 88 -18 18 -66 14 -88 -8z"/>
<path d="M4722 2488 c-22 -22 -13 -55 24 -88 47 -41 88 -39 92 5 1 17 -6 44
-18 63 -16 26 -26 32 -53 32 -18 0 -38 -5 -45 -12z"/>
<path d="M3413 2433 c-21 -14 -51 -30 -68 -36 -39 -13 -75 -46 -75 -68 0 -32
43 -66 111 -89 95 -33 104 -26 129 91 16 73 8 104 -30 117 -25 9 -35 7 -67
-15z"/>
<path d="M2228 2427 c-16 -17 -33 -162 -22 -192 9 -23 49 -36 77 -26 12 5 35
23 51 40 17 17 35 31 40 31 6 0 24 11 39 25 51 48 25 101 -56 116 -23 4 -58
10 -78 14 -26 5 -40 3 -51 -8z"/>
<path d="M5208 2435 c-2 -3 -29 -9 -58 -15 -67 -13 -92 -34 -88 -74 2 -22 12
-36 36 -51 18 -11 54 -37 78 -57 53 -45 67 -46 99 -14 23 24 24 29 19 103 -7
84 -22 113 -59 113 -12 0 -24 -2 -27 -5z"/>
<path d="M894 2420 c-45 -18 -41 -50 11 -74 48 -23 95 -1 95 44 0 32 -59 49
-106 30z"/>
<path d="M6517 2415 c-43 -42 8 -93 72 -71 72 24 63 72 -16 83 -29 4 -44 1
-56 -12z"/>
<path d="M2788 2400 c-29 -23 -53 -73 -44 -95 3 -9 18 -15 39 -15 44 0 87 38
87 78 0 52 -38 67 -82 32z"/>
<path d="M2918 2410 c-21 -13 -41 -74 -33 -100 9 -29 42 -25 77 10 24 25 29
36 23 58 -10 40 -33 51 -67 32z"/>
<path d="M4520 2401 c-16 -31 -12 -51 19 -82 36 -35 68 -38 76 -6 17 66 -65
142 -95 88z"/>
<path d="M4642 2408 c-22 -22 -14 -75 14 -97 28 -22 88 -28 99 -10 11 17 -3
55 -34 88 -30 32 -59 39 -79 19z"/>
<path d="M2064 2377 c-6 -17 10 -59 31 -80 44 -44 113 -2 80 49 -25 39 -100
60 -111 31z"/>
<path d="M5340 2361 c-34 -34 -36 -43 -14 -65 25 -25 60 -19 89 15 35 43 30
73 -13 77 -25 3 -39 -3 -62 -27z"/>
<path d="M4013 2360 c-29 -12 -39 -52 -25 -109 6 -25 13 -59 17 -74 10 -48 42
-53 125 -21 121 48 133 102 32 150 -31 15 -68 35 -81 45 -26 21 -35 22 -68 9z"/>
<path d="M3540 2344 c-20 -23 -1 -64 38 -87 42 -25 62 -17 62 26 0 59 -68 100
-100 61z"/>
<path d="M3887 2258 c-38 -29 -41 -108 -4 -108 25 0 77 40 83 65 11 46 -38 73
-79 43z"/>
<path d="M1447 2232 c-18 -20 -21 -55 -10 -140 9 -78 28 -88 122 -64 82 21
111 41 111 76 0 28 -19 50 -63 73 -18 9 -47 29 -65 44 -38 33 -72 37 -95 11z"/>
<path d="M3500 2230 c-13 -24 -7 -49 21 -84 46 -58 89 -49 89 18 0 69 -82 118
-110 66z"/>
<path d="M5954 2221 c-16 -15 -48 -38 -71 -50 -74 -37 -65 -113 14 -126 21 -4
55 -13 77 -21 70 -27 96 15 96 157 0 69 -63 91 -116 40z"/>
<path d="M3290 2211 c-16 -32 -12 -69 12 -91 41 -38 68 -22 68 41 0 43 -17 69
-45 69 -14 0 -29 -8 -35 -19z"/>
<path d="M3408 2189 c-29 -17 -24 -83 8 -108 31 -24 79 -28 87 -7 9 22 -12 85
-34 107 -21 21 -36 23 -61 8z"/>
<path d="M1311 2156 c-12 -13 -23 -36 -24 -52 -2 -28 0 -29 37 -28 30 1 46 8
63 28 27 32 28 39 7 60 -22 23 -57 20 -83 -8z"/>
<path d="M6106 2164 c-22 -22 -20 -31 13 -65 33 -32 85 -40 95 -14 13 35 -35
95 -76 95 -9 0 -24 -7 -32 -16z"/>
<path d="M3912 2137 c-28 -30 -29 -87 -3 -111 17 -16 20 -15 48 8 41 34 58 77
43 105 -15 29 -60 28 -88 -2z"/>
<path d="M4142 2128 c-17 -17 -15 -90 3 -114 14 -18 16 -18 45 14 46 50 38
112 -15 112 -12 0 -26 -5 -33 -12z"/>
<path d="M4034 2095 c-12 -8 -27 -35 -34 -61 -12 -42 -12 -48 4 -60 13 -9 25
-10 47 -2 37 13 59 44 59 83 0 52 -34 70 -76 40z"/>
<path d="M1329 2041 c-33 -33 -39 -80 -13 -105 18 -18 33 -12 77 28 43 40 33
106 -16 106 -10 0 -32 -13 -48 -29z"/>
<path d="M6087 2052 c-10 -10 -17 -24 -17 -31 0 -21 40 -70 69 -85 38 -20 56
-6 56 45 0 68 -70 114 -108 71z"/>
<path d="M1978 2039 c-52 -20 -39 -71 23 -84 53 -12 87 14 74 56 -4 13 -61 44
-69 38 -1 0 -13 -5 -28 -10z"/>
<path d="M5464 2039 c-47 -17 -55 -71 -13 -84 28 -9 74 3 95 26 16 18 16 20 0
38 -20 22 -55 31 -82 20z"/>
<path d="M1561 2001 c-26 -26 -37 -86 -21 -106 18 -21 37 -19 65 10 29 28 33
76 9 99 -20 21 -30 20 -53 -3z"/>
<path d="M5892 2013 c-7 -3 -17 -16 -23 -30 -16 -44 38 -114 77 -99 23 9 18
92 -6 116 -21 21 -26 22 -48 13z"/>
<path d="M1015 1998 c-11 -6 -21 -12 -23 -13 -2 -2 -11 -37 -21 -79 -26 -108
-19 -118 83 -130 63 -8 84 -7 105 5 41 23 40 64 -2 108 -19 20 -42 50 -51 68
-15 30 -43 53 -63 53 -4 0 -17 -6 -28 -12z"/>
<path d="M2140 1998 c-21 -8 -86 -79 -114 -126 -13 -23 10 -59 51 -80 21 -10
52 -27 69 -37 38 -23 80 -14 96 19 8 19 7 35 -6 72 -9 26 -16 64 -16 84 0 58
-32 85 -80 68z"/>
<path d="M6406 1979 c-14 -17 -26 -34 -26 -38 0 -4 -16 -24 -35 -44 -43 -46
-47 -89 -11 -112 19 -13 41 -15 101 -11 42 3 83 10 91 17 17 14 17 44 0 123
-20 94 -72 122 -120 65z"/>
<path d="M1437 1978 c-35 -32 -52 -87 -33 -106 33 -33 116 20 116 74 0 25 -24
54 -45 54 -8 0 -25 -10 -38 -22z"/>
<path d="M5289 1979 c-6 -12 -11 -38 -11 -58 0 -20 -6 -51 -14 -70 -19 -46
-18 -67 6 -91 29 -29 52 -25 129 21 98 58 99 72 11 172 -34 39 -48 47 -75 47
-25 0 -38 -6 -46 -21z"/>
<path d="M5998 1989 c-26 -15 -23 -71 5 -97 31 -29 79 -38 96 -18 24 29 -35
127 -76 126 -4 0 -16 -5 -25 -11z"/>
<path d="M2529 1969 c-29 -29 -23 -57 24 -129 57 -87 76 -90 157 -18 50 44 60
58 60 85 0 41 -30 63 -90 63 -25 1 -65 5 -89 9 -36 7 -46 6 -62 -10z"/>
<path d="M3174 1975 c-9 -22 34 -84 62 -91 37 -9 54 2 54 35 0 20 -8 36 -26
50 -31 24 -82 28 -90 6z"/>
<path d="M4796 1967 c-33 -33 -32 -43 2 -98 16 -24 36 -56 45 -71 25 -40 67
-38 113 5 19 17 46 42 59 54 28 25 32 60 11 88 -10 14 -33 21 -82 27 -38 4
-81 10 -96 14 -21 5 -33 0 -52 -19z"/>
<path d="M848 1940 c-39 -40 -34 -64 15 -68 48 -4 87 20 87 53 0 25 -25 45
-55 45 -9 0 -30 -13 -47 -30z"/>
<path d="M6568 1959 c-26 -15 -22 -56 6 -74 33 -22 100 -17 104 8 4 21 -50 77
-75 77 -10 0 -26 -5 -35 -11z"/>
<path d="M1886 1929 c-29 -23 -35 -63 -10 -73 34 -13 101 -6 117 12 55 60 -40
114 -107 61z"/>
<path d="M3051 1941 c-22 -14 -6 -53 32 -78 39 -27 69 -29 91 -7 22 22 20 41
-9 69 -25 26 -85 34 -114 16z"/>
<path d="M5508 1939 c-23 -13 -23 -51 0 -72 19 -17 85 -23 116 -11 25 10 19
50 -10 73 -28 22 -78 27 -106 10z"/>
<path d="M4221 1884 c-38 -49 -16 -97 37 -78 30 10 67 67 58 89 -10 26 -72 19
-95 -11z"/>
<path d="M4353 1870 c-47 -19 -58 -84 -17 -102 21 -10 31 -9 61 7 19 11 42 30
51 43 13 20 13 25 1 37 -19 19 -68 27 -96 15z"/>
<path d="M865 1851 c-40 -17 -71 -74 -58 -107 14 -37 118 6 130 54 4 19 1 30
-17 44 -25 20 -26 20 -55 9z"/>
<path d="M2454 1853 c-21 -15 -35 -54 -29 -83 9 -41 32 -45 66 -10 24 23 30
37 27 62 -2 27 -8 33 -28 36 -14 1 -30 -1 -36 -5z"/>
<path d="M3260 1851 c-8 -5 -32 -12 -53 -15 -56 -10 -67 -41 -38 -109 40 -92
46 -100 74 -110 39 -13 70 10 86 64 7 23 21 54 31 68 30 43 33 68 11 90 -22
22 -82 28 -111 12z"/>
<path d="M4707 1842 c-21 -23 -22 -85 -3 -101 32 -27 94 46 82 95 -8 30 -55
33 -79 6z"/>
<path d="M6580 1842 c-18 -14 -21 -25 -17 -44 12 -47 116 -91 130 -55 10 26
-6 68 -35 92 -35 30 -48 31 -78 7z"/>
<path d="M3003 1843 c-39 -15 19 -113 67 -113 35 0 60 19 60 45 0 31 -22 52
-68 65 -40 11 -41 11 -59 3z"/>
<path d="M1915 1814 c-16 -8 -33 -20 -37 -27 -12 -20 11 -46 53 -58 35 -11 43
-10 67 8 75 55 3 122 -83 77z"/>
<path d="M2737 1818 c-22 -12 -23 -75 -1 -106 31 -44 74 -18 74 45 -1 48 -39
80 -73 61z"/>
<path d="M5482 1818 c-17 -17 -15 -53 6 -70 29 -26 59 -30 97 -12 49 23 49 59
0 80 -42 17 -87 18 -103 2z"/>
<path d="M4988 1795 c-8 -19 -8 -33 3 -62 23 -60 70 -55 84 8 14 64 -61 111
-87 54z"/>
<path d="M4138 1774 c-36 -19 -37 -58 -3 -104 14 -18 28 -48 31 -66 7 -40 35
-66 69 -66 33 0 52 16 66 60 6 20 18 46 25 57 19 26 18 70 -2 86 -13 10 -131
47 -154 48 -3 0 -17 -7 -32 -15z"/>
<path d="M2533 1769 c-42 -16 -54 -68 -28 -119 26 -51 66 -36 85 31 18 61 -11
106 -57 88z"/>
<path d="M4402 1753 c-38 -19 -52 -57 -29 -81 20 -19 70 -20 92 -2 24 20 46
67 39 84 -8 21 -59 20 -102 -1z"/>
<path d="M4777 1752 c-35 -39 -11 -132 34 -132 36 0 66 109 37 138 -18 18 -53
15 -71 -6z"/>
<path d="M903 1724 c-47 -50 -42 -78 14 -82 35 -3 48 2 68 22 27 27 33 64 13
84 -23 23 -60 13 -95 -24z"/>
<path d="M2033 1745 c-55 -39 -49 -85 11 -85 48 0 78 25 74 63 -3 27 -7 32
-33 35 -16 1 -40 -4 -52 -13z"/>
<path d="M2643 1745 c-43 -30 -37 -145 7 -145 26 0 70 56 70 89 0 25 -31 71
-48 71 -4 0 -17 -7 -29 -15z"/>
<path d="M3694 1750 c-24 -9 -54 -47 -54 -67 0 -16 28 -43 46 -43 25 0 74 56
74 83 0 34 -25 44 -66 27z"/>
<path d="M4900 1740 c-25 -25 -28 -111 -5 -130 22 -18 60 1 80 40 17 33 13 63
-13 93 -20 22 -37 22 -62 -3z"/>
<path d="M5393 1753 c-22 -8 -15 -60 9 -77 49 -35 122 -10 99 33 -22 40 -70
60 -108 44z"/>
<path d="M6502 1748 c-21 -21 -14 -65 15 -88 20 -15 38 -20 67 -18 55 4 60 32
13 82 -35 37 -72 47 -95 24z"/>
<path d="M1053 1735 c-31 -22 -48 -85 -28 -105 14 -13 20 -13 53 5 30 16 38
27 40 53 3 34 -11 62 -32 62 -6 0 -21 -7 -33 -15z"/>
<path d="M6396 1737 c-12 -9 -17 -23 -14 -47 2 -29 10 -39 40 -55 33 -18 39
-18 52 -5 19 20 10 62 -20 95 -26 29 -33 30 -58 12z"/>
<path d="M3053 1710 c-31 -13 -29 -33 8 -64 35 -30 56 -32 87 -10 62 43 -17
105 -95 74z"/>
<path d="M3775 1695 c-55 -54 -10 -112 61 -79 32 15 64 48 64 66 0 18 -35 38
-66 38 -24 0 -43 -8 -59 -25z"/>
<path d="M1380 1613 c-26 -27 -59 -58 -74 -70 -31 -25 -34 -65 -8 -91 14 -14
40 -20 96 -25 43 -3 85 -3 93 0 24 9 31 44 24 120 -11 122 -53 143 -131 66z"/>
<path d="M6015 1635 c-23 -22 -25 -32 -25 -109 0 -105 5 -109 116 -99 55 4 82
11 96 25 26 26 23 66 -8 91 -15 12 -48 43 -74 70 -26 26 -55 47 -64 47 -9 0
-28 -11 -41 -25z"/>
<path d="M4340 1620 c-24 -24 -25 -34 -5 -54 25 -24 52 -28 84 -12 38 20 50
55 25 73 -27 20 -81 16 -104 -7z"/>
<path d="M3569 1609 c-24 -24 -20 -57 11 -100 10 -14 24 -45 30 -68 20 -75 98
-83 126 -13 8 20 23 53 33 72 19 35 20 65 4 81 -10 10 -144 49 -168 49 -8 0
-24 -9 -36 -21z"/>
<path d="M1546 1594 c-9 -8 -16 -21 -16 -28 0 -25 46 -56 86 -59 34 -2 39 1
42 22 5 29 -43 81 -74 81 -12 0 -30 -7 -38 -16z"/>
<path d="M3838 1595 c-46 -26 -47 -78 -2 -96 52 -19 126 47 108 96 -8 19 -70
19 -106 0z"/>
<path d="M5885 1598 c-49 -28 -60 -90 -18 -96 29 -4 79 23 94 50 10 18 8 24
-11 40 -26 21 -37 22 -65 6z"/>
<path d="M2140 1495 c-7 -8 -40 -28 -75 -44 -68 -33 -83 -54 -64 -95 9 -18 30
-32 78 -51 78 -30 117 -32 129 -7 13 24 37 144 33 162 -9 44 -74 67 -101 35z"/>
<path d="M5283 1502 c-24 -15 -31 -55 -17 -107 7 -27 16 -62 19 -77 8 -40 41
-44 121 -15 125 45 135 98 28 149 -35 17 -69 36 -75 44 -12 15 -56 19 -76 6z"/>
<path d="M1540 1475 c-20 -24 -3 -63 39 -91 52 -34 75 -29 79 17 4 49 -28 89
-73 89 -18 0 -38 -7 -45 -15z"/>
<path d="M5861 1464 c-26 -33 -28 -92 -4 -101 9 -4 32 3 52 14 72 41 76 113 6
113 -24 0 -39 -7 -54 -26z"/>
<path d="M3779 1459 c-18 -18 -19 -23 -6 -42 30 -46 127 -22 127 32 0 37 -87
44 -121 10z"/>
<path d="M2266 1404 c-22 -22 -20 -41 8 -69 31 -31 75 -43 87 -24 16 25 9 50
-20 80 -33 33 -52 36 -75 13z"/>
<path d="M5177 1413 c-36 -9 -62 -98 -32 -109 17 -7 69 12 83 30 20 24 23 54
7 70 -17 16 -25 18 -58 9z"/>
<path d="M1352 1398 c-34 -34 12 -123 61 -116 19 3 22 9 21 45 -1 65 -48 105
-82 71z"/>
<path d="M1458 1385 c-22 -49 24 -105 86 -105 38 0 50 23 32 59 -37 70 -96 93
-118 46z"/>
<path d="M2910 1388 c-11 -12 -20 -31 -20 -43 0 -11 -12 -38 -27 -60 -48 -71
-25 -131 47 -120 73 10 134 32 148 54 13 19 12 28 -17 94 -18 39 -40 78 -49
85 -24 18 -59 15 -82 -10z"/>
<path d="M4500 1390 c-11 -11 -20 -25 -20 -31 0 -6 -11 -32 -23 -58 -39 -77
-27 -98 70 -124 81 -22 99 -21 124 4 25 25 20 54 -17 108 -13 19 -24 45 -24
56 0 29 -36 65 -65 65 -14 0 -34 -9 -45 -20z"/>
<path d="M5965 1396 c-11 -8 -29 -30 -39 -50 -18 -34 -18 -38 -3 -53 23 -23
83 -7 110 29 41 55 -13 113 -68 74z"/>
<path d="M6080 1383 c-28 -36 -25 -97 6 -101 33 -5 74 34 74 72 0 59 -44 75
-80 29z"/>
<path d="M3062 1388 c-18 -18 -14 -56 7 -68 24 -12 81 -13 100 -1 21 14 5 60
-25 71 -34 13 -68 12 -82 -2z"/>
<path d="M4346 1379 c-29 -23 -34 -54 -10 -63 27 -10 89 -7 102 6 18 18 14 56
-7 68 -30 15 -56 12 -85 -11z"/>
<path d="M2221 1286 c-10 -19 -11 -28 -1 -47 17 -34 61 -79 77 -79 17 0 33 33
33 68 0 68 -81 111 -109 58z"/>
<path d="M5191 1284 c-32 -41 -23 -124 13 -124 23 0 76 68 76 98 0 56 -54 71
-89 26z"/>
<path d="M900 1288 c-25 -9 -42 -43 -35 -70 8 -31 108 -138 129 -138 22 0 124
107 132 138 4 13 0 32 -10 46 -14 23 -23 25 -107 28 -50 2 -99 0 -109 -4z"/>
<path d="M2010 1271 c-15 -30 -12 -56 11 -85 14 -17 29 -26 43 -24 17 2 22 11
24 45 2 23 -2 51 -8 63 -14 26 -56 26 -70 1z"/>
<path d="M3090 1270 c-25 -46 28 -94 98 -88 46 4 51 22 20 69 -20 28 -31 35
-65 37 -34 3 -44 -1 -53 -18z"/>
<path d="M4317 1279 c-22 -13 -50 -67 -43 -85 12 -32 125 -7 140 31 9 25 8 32
-10 49 -17 18 -60 20 -87 5z"/>
<path d="M5422 1278 c-15 -15 -16 -100 -1 -115 26 -26 79 26 79 77 0 39 -51
65 -78 38z"/>
<path d="M6402 1279 c-27 -10 -37 -50 -21 -81 23 -44 102 -118 124 -118 26 0
135 121 135 149 0 9 -7 26 -15 38 -13 19 -24 21 -108 20 -52 0 -104 -4 -115
-8z"/>
<path d="M2127 1242 c-35 -38 -13 -99 43 -122 27 -11 34 -11 47 3 31 31 -17
137 -63 137 -6 0 -18 -8 -27 -18z"/>
<path d="M5306 1237 c-30 -31 -43 -94 -22 -115 12 -13 19 -13 46 -2 57 24 79
89 42 123 -25 23 -39 21 -66 -6z"/>
<path d="M3048 1179 c-28 -16 -23 -64 8 -88 48 -38 134 -19 120 25 -14 43 -95
83 -128 63z"/>
<path d="M4380 1171 c-19 -10 -42 -30 -50 -45 -14 -25 -13 -28 4 -42 46 -33
136 0 136 51 0 13 -10 31 -22 39 -28 20 -26 20 -68 -3z"/>
<path d="M820 1133 c-16 -20 -20 -36 -16 -58 13 -65 53 -68 82 -7 33 71 -20
124 -66 65z"/>
<path d="M1104 1135 c-15 -23 -15 -27 3 -62 10 -20 26 -41 36 -47 44 -26 68
88 25 118 -31 22 -45 20 -64 -9z"/>
<path d="M6330 1140 c-32 -32 -21 -120 15 -120 22 0 55 50 55 84 0 55 -34 72
-70 36z"/>
<path d="M6612 1148 c-17 -17 -15 -55 5 -89 31 -52 66 -45 79 16 10 54 -50
107 -84 73z"/>
<path d="M2936 1134 c-22 -21 -20 -38 7 -69 15 -18 33 -27 57 -28 31 -2 35 1
38 26 2 20 -5 35 -27 57 -33 34 -52 37 -75 14z"/>
<path d="M4489 1121 c-52 -52 -30 -106 34 -82 26 10 57 47 57 68 0 16 -28 43
-46 43 -9 0 -29 -13 -45 -29z"/>
<path d="M4003 1110 c-33 -14 -40 -50 -13 -72 25 -20 47 -22 85 -8 34 13 42
37 19 60 -24 23 -62 32 -91 20z"/>
<path d="M2411 1074 c-12 -15 -21 -34 -21 -43 0 -9 -11 -34 -25 -56 -32 -53
-32 -90 1 -111 24 -16 30 -16 100 2 93 23 97 25 97 60 0 37 -46 144 -69 161
-28 21 -61 15 -83 -13z"/>
<path d="M5009 1087 c-9 -7 -31 -45 -48 -85 -30 -67 -31 -75 -18 -96 15 -23
111 -56 162 -56 26 0 65 31 65 53 0 6 -14 35 -30 62 -16 28 -30 57 -30 66 0
26 -40 69 -63 69 -12 0 -29 -6 -38 -13z"/>
<path d="M2568 1079 c-24 -13 -23 -56 1 -69 35 -18 99 -12 111 10 9 17 6 25
-14 45 -26 26 -68 32 -98 14z"/>
<path d="M3842 1077 c-6 -7 -16 -34 -21 -59 -6 -26 -18 -63 -27 -81 -22 -46
-13 -81 26 -97 28 -11 36 -10 83 14 29 14 57 26 63 26 16 0 44 34 44 53 0 18
-74 137 -93 149 -19 12 -64 9 -75 -5z"/>
<path d="M4848 1079 c-28 -16 -41 -48 -27 -65 13 -16 81 -19 110 -4 25 14 25
56 0 70 -25 13 -61 12 -83 -1z"/>
<path d="M900 1053 c-26 -33 -21 -75 12 -110 30 -32 47 -29 64 12 18 44 18 75
-2 103 -21 30 -48 28 -74 -5z"/>
<path d="M1027 1062 c-33 -36 -12 -142 28 -142 23 0 55 50 55 86 0 35 -28 74
-53 74 -8 0 -21 -8 -30 -18z"/>
<path d="M1397 1073 c-23 -22 6 -113 43 -133 43 -23 82 28 60 79 -16 40 -83
75 -103 54z"/>
<path d="M3383 1068 c-12 -6 -26 -23 -32 -38 -21 -61 56 -77 100 -22 28 37 22
66 -16 69 -16 1 -40 -3 -52 -9z"/>
<path d="M6039 1065 c-51 -28 -61 -102 -18 -126 28 -15 64 10 79 55 24 72 -3
103 -61 71z"/>
<path d="M6411 1062 c-39 -30 -27 -108 20 -133 30 -16 50 7 56 65 4 36 2 51
-12 66 -22 25 -37 25 -64 2z"/>
<path d="M6526 1058 c-20 -28 -20 -59 -2 -103 18 -42 34 -44 66 -10 29 31 32
85 5 115 -24 26 -50 26 -69 -2z"/>
<path d="M1905 1040 c-33 -35 -37 -80 -10 -110 23 -25 40 -25 65 0 33 33 23
140 -13 140 -8 0 -26 -13 -42 -30z"/>
<path d="M5530 1051 c-17 -33 -12 -99 10 -121 25 -25 42 -25 63 -2 27 30 22
84 -11 115 -33 32 -48 34 -62 8z"/>
<path d="M2016 1015 c-22 -46 -17 -94 10 -112 20 -13 25 -12 50 10 32 28 36
72 10 111 -23 37 -50 33 -70 -9z"/>
<path d="M5414 1024 c-26 -39 -22 -83 10 -111 26 -22 30 -23 50 -10 42 29 17
147 -30 147 -8 0 -21 -12 -30 -26z"/>
<path d="M1530 1021 c-38 -72 32 -162 75 -97 20 31 11 70 -22 96 -32 25 -40
25 -53 1z"/>
<path d="M5909 1011 c-16 -16 -29 -38 -29 -48 0 -27 28 -63 50 -63 43 0 68 91
34 124 -20 21 -21 21 -55 -13z"/>
<path d="M1300 1015 c-36 -43 6 -139 59 -133 52 6 53 68 1 119 -32 33 -42 35
-60 14z"/>
<path d="M6131 995 c-47 -54 -39 -115 14 -115 35 0 65 41 65 86 0 71 -32 82
-79 29z"/>
<path d="M3467 1002 c-27 -29 -22 -71 10 -83 21 -8 35 -5 72 13 50 25 64 54
35 75 -27 20 -98 17 -117 -5z"/>
<path d="M4045 996 c-21 -21 -24 -29 -15 -46 15 -28 42 -40 93 -40 64 0 72 35
20 82 -34 31 -69 33 -98 4z"/>
<path d="M1802 968 c-5 -7 -13 -27 -17 -45 -5 -27 -2 -37 19 -58 21 -21 29
-24 46 -15 28 15 34 51 16 94 -16 37 -44 48 -64 24z"/>
<path d="M2603 973 c-20 -8 -15 -58 7 -78 14 -13 37 -19 68 -19 40 -1 47 2 50
20 5 34 -44 84 -81 83 -18 0 -38 -3 -44 -6z"/>
<path d="M3251 954 c-25 -32 -26 -40 -6 -78 9 -17 20 -50 26 -75 12 -55 34
-81 66 -81 27 0 56 28 96 94 34 55 33 95 -3 112 -134 63 -150 65 -179 28z"/>
<path d="M4795 949 c-38 -46 -31 -73 21 -77 48 -4 94 27 94 62 0 55 -73 65
-115 15z"/>
<path d="M5635 950 c-21 -41 -19 -76 7 -94 46 -32 89 28 63 89 -18 45 -48 47
-70 5z"/>
<path d="M2099 909 c-29 -31 -35 -53 -23 -83 8 -22 57 -20 77 2 29 32 18 112
-16 112 -5 0 -22 -14 -38 -31z"/>
<path d="M5342 928 c-19 -19 -15 -82 6 -101 24 -21 68 -22 76 -1 11 28 6 43
-25 79 -34 39 -39 41 -57 23z"/>
<path d="M1411 897 c-6 -8 -15 -36 -20 -63 -5 -27 -13 -57 -16 -67 -4 -9 -2
-31 5 -47 16 -38 54 -49 89 -27 14 9 46 26 71 38 62 29 80 47 80 79 0 35 -21
52 -96 78 -71 25 -97 27 -113 9z"/>
<path d="M3535 903 c-28 -7 -55 -33 -55 -54 0 -53 79 -67 123 -21 56 58 21 96
-68 75z"/>
<path d="M5965 884 c-33 -13 -66 -32 -72 -41 -30 -40 -2 -94 55 -108 15 -4 41
-17 59 -31 63 -48 135 -15 119 54 -4 15 -11 45 -15 67 -17 92 -41 102 -146 59z"/>
<path d="M1908 868 c-18 -18 -43 -40 -55 -48 -13 -8 -26 -29 -29 -46 -9 -45
22 -74 79 -74 23 0 59 -5 81 -11 52 -14 81 -5 96 30 13 31 12 33 -48 131 -38
60 -75 66 -124 18z"/>
<path d="M4013 890 c-30 -12 -30 -50 0 -78 30 -29 89 -30 117 -2 26 26 17 45
-34 70 -47 22 -51 23 -83 10z"/>
<path d="M5456 831 c-51 -77 -56 -101 -25 -132 17 -17 28 -20 58 -14 20 3 64
10 99 14 71 8 85 18 85 61 0 26 -11 42 -59 85 -83 76 -100 74 -158 -14z"/>
<path d="M1257 883 c-21 -20 10 -98 43 -108 29 -9 57 3 63 27 11 40 -79 108
-106 81z"/>
<path d="M6178 873 c-49 -31 -56 -88 -12 -99 47 -12 92 40 82 93 -4 24 -37 27
-70 6z"/>
<path d="M2552 864 c-66 -46 34 -133 109 -94 29 16 23 46 -13 73 -46 34 -70
40 -96 21z"/>
<path d="M4890 869 c-35 -14 -70 -49 -70 -70 0 -43 87 -53 125 -14 30 29 31
49 5 75 -22 22 -25 23 -60 9z"/>
<path d="M2442 828 c-18 -18 -14 -63 6 -81 27 -25 76 -32 91 -14 15 19 -6 67
-41 91 -27 19 -40 20 -56 4z"/>
<path d="M3902 828 c-40 -40 48 -122 97 -91 27 17 24 41 -7 73 -32 31 -69 39
-90 18z"/>
<path d="M5002 824 c-12 -8 -29 -29 -38 -46 -15 -30 -15 -32 2 -45 22 -16 60
-9 87 14 29 27 17 93 -18 93 -6 0 -21 -7 -33 -16z"/>
<path d="M3437 772 c-50 -55 56 -100 110 -46 23 23 24 27 10 41 -8 8 -35 17
-58 20 -35 4 -48 1 -62 -15z"/>
<path d="M2852 715 c-40 -51 6 -92 67 -61 66 35 61 86 -9 86 -29 0 -43 -6 -58
-25z"/>
<path d="M4554 732 c-19 -12 -34 -50 -28 -66 8 -21 47 -30 71 -18 10 6 29 22
42 36 20 21 22 28 11 41 -13 15 -76 21 -96 7z"/>
<path d="M2952 660 c-28 -27 -29 -66 -1 -81 27 -14 80 -4 113 22 30 23 25 44
-15 64 -39 21 -71 19 -97 -5z"/>
<path d="M4642 664 c-26 -18 -30 -65 -7 -84 18 -15 77 -7 111 15 33 21 31 51
-6 70 -37 19 -70 19 -98 -1z"/>
<path d="M2729 639 c-16 -16 -20 -28 -15 -52 4 -18 11 -57 15 -88 12 -80 25
-99 66 -99 24 0 41 7 54 23 69 80 91 111 91 123 0 16 -47 64 -62 64 -5 0 -26
11 -46 25 -45 31 -75 32 -103 4z"/>
<path d="M4421 644 c-18 -13 -22 -23 -18 -48 3 -17 10 -62 16 -101 17 -120 66
-132 150 -35 68 78 68 111 1 145 -19 10 -46 26 -59 36 -29 23 -59 24 -90 3z"/>
<path d="M817 566 c-30 -28 -35 -66 -11 -90 20 -21 26 -20 58 5 23 18 27 28
24 63 -4 51 -31 59 -71 22z"/>
<path d="M942 574 c-65 -45 -36 -133 34 -102 28 13 68 82 60 104 -7 19 -66 18
-94 -2z"/>
<path d="M6464 576 c-12 -31 56 -116 92 -116 7 0 21 11 29 24 30 45 -17 106
-83 106 -19 0 -35 -6 -38 -14z"/>
<path d="M6610 546 c0 -36 5 -48 26 -65 15 -12 30 -21 35 -21 16 0 39 32 39
54 0 30 -46 76 -76 76 -22 0 -24 -4 -24 -44z"/>
<path d="M2240 572 c-46 -14 -70 -63 -54 -106 6 -17 41 -21 60 -8 18 12 34 49
34 80 0 31 -14 43 -40 34z"/>
<path d="M2343 570 c-75 -31 -62 -141 14 -114 37 13 80 88 63 109 -14 17 -44
18 -77 5z"/>
<path d="M5081 566 c-11 -13 -9 -23 13 -61 40 -67 107 -75 114 -13 7 56 -94
114 -127 74z"/>
<path d="M5233 573 c-26 -10 -10 -95 21 -115 19 -13 54 -9 60 8 13 34 5 63
-25 88 -31 27 -35 28 -56 19z"/>
<path d="M3286 549 c-24 -34 -21 -46 29 -121 52 -77 58 -82 88 -74 32 9 137
111 137 134 0 38 -35 67 -82 69 -23 0 -68 4 -99 8 -52 7 -57 6 -73 -16z"/>
<path d="M4041 544 c-11 -14 -23 -34 -26 -44 -8 -25 10 -67 35 -80 30 -16 70
26 70 75 0 73 -40 98 -79 49z"/>
<path d="M1682 548 c-18 -18 -15 -32 16 -61 38 -37 89 -38 98 -1 13 51 -76
100 -114 62z"/>
<path d="M2993 549 c-83 -24 -44 -117 40 -95 57 14 88 79 45 91 -44 13 -53 13
-85 4z"/>
<path d="M4160 528 c-25 -40 -23 -106 3 -122 13 -8 24 -7 45 4 37 21 44 94 12
128 -28 29 -37 28 -60 -10z"/>
<path d="M5720 540 c-34 -34 -23 -80 20 -80 31 0 90 43 90 66 0 35 -79 45
-110 14z"/>
<path d="M4650 530 c-11 -11 -20 -24 -20 -30 0 -20 41 -50 69 -50 56 0 118 77
75 94 -36 14 -104 6 -124 -14z"/>
<path d="M1055 505 c-57 -29 -83 -83 -53 -113 47 -47 141 46 108 107 -13 25
-16 25 -55 6z"/>
<path d="M6390 505 c-19 -23 -4 -81 27 -105 49 -38 103 -12 89 43 -11 46 -93
90 -116 62z"/>
<path d="M2423 479 c-61 -39 -62 -109 0 -109 42 0 53 8 72 53 28 68 -9 97 -72
56z"/>
<path d="M5000 480 c-16 -31 14 -96 52 -109 40 -14 68 1 68 37 0 32 -6 41 -44
70 -35 27 -62 28 -76 2z"/>
<path d="M1583 478 c-24 -12 -36 -34 -27 -50 4 -6 26 -19 50 -30 38 -16 48
-17 71 -6 36 17 40 44 12 74 -24 26 -67 31 -106 12z"/>
<path d="M3948 473 c-47 -54 -14 -140 46 -117 27 10 31 54 10 93 -23 42 -35
47 -56 24z"/>
<path d="M5812 474 c-24 -17 -29 -53 -10 -72 18 -18 79 -14 116 8 37 23 39 33
12 60 -24 24 -86 27 -118 4z"/>
<path d="M1819 461 c-13 -10 -43 -28 -66 -40 -73 -37 -70 -68 20 -163 69 -75
114 -62 126 37 5 33 13 72 19 88 14 33 2 71 -27 86 -28 15 -45 14 -72 -8z"/>
<path d="M5608 470 c-35 -21 -40 -47 -22 -105 l18 -55 87 0 c79 0 89 2 99 21
19 35 4 67 -43 90 -23 12 -49 27 -57 34 -22 19 -62 26 -82 15z"/>
<path d="M826 441 c-48 -5 -63 -11 -78 -31 -13 -18 -16 -32 -11 -47 8 -23 147
-153 163 -153 5 0 21 10 35 23 23 20 27 32 32 103 5 67 3 83 -11 97 -18 17
-27 18 -130 8z"/>
<path d="M2898 440 c-10 -6 -18 -19 -18 -29 0 -48 90 -70 125 -31 18 20 18 21
-1 41 -24 23 -82 34 -106 19z"/>
<path d="M3209 429 c-25 -25 -23 -86 4 -103 15 -9 23 -5 48 22 30 34 37 70 17
90 -18 18 -45 15 -69 -9z"/>
<path d="M4583 439 c-19 -19 -16 -57 6 -69 33 -17 86 -12 106 10 18 20 18 21
-2 41 -25 25 -93 36 -110 18z"/>
<path d="M6545 434 c-11 -12 -15 -31 -13 -68 l3 -51 65 -5 c36 -3 71 -9 78
-13 8 -6 25 1 47 18 28 20 35 33 35 59 0 49 -23 62 -117 70 -68 5 -84 4 -98
-10z"/>
<path d="M2278 435 c-3 -4 -32 -8 -64 -11 -93 -7 -123 -61 -63 -112 17 -15 51
-46 74 -69 24 -24 52 -43 64 -43 35 0 61 35 61 83 0 23 3 58 6 77 3 22 0 41
-8 52 -14 18 -60 33 -70 23z"/>
<path d="M4236 409 c-28 -33 -33 -68 -14 -87 31 -31 88 6 88 57 0 68 -32 81
-74 30z"/>
<path d="M5161 419 c-20 -19 -22 -28 -17 -67 3 -25 6 -60 6 -78 0 -40 29 -74
64 -74 17 0 38 16 71 55 26 30 53 55 61 55 15 0 34 30 34 53 0 31 -35 59 -76
62 -21 1 -57 5 -79 9 -33 6 -44 3 -64 -15z"/>
<path d="M3489 386 c-20 -44 18 -124 53 -111 22 9 41 58 33 84 -16 52 -68 68
-86 27z"/>
<path d="M4044 370 c-66 -56 -84 -78 -84 -105 0 -34 29 -52 95 -59 33 -4 78
-10 101 -12 46 -7 67 10 67 54 0 36 -83 156 -110 160 -13 2 -39 -13 -69 -38z"/>
<path d="M1016 349 c-55 -44 -11 -99 59 -73 20 8 48 62 41 80 -8 21 -69 17
-100 -7z"/>
<path d="M1553 360 c-29 -12 -29 -22 2 -58 30 -35 67 -47 98 -31 42 22 48 48
17 79 -21 21 -77 26 -117 10z"/>
<path d="M5832 354 c-44 -31 -28 -44 53 -44 72 0 75 1 75 24 0 16 -7 26 -22
30 -40 10 -83 6 -106 -10z"/>
<path d="M6386 361 c-4 -6 -4 -20 -1 -31 5 -17 15 -20 66 -20 32 0 59 4 59 8
0 32 -108 69 -124 43z"/>
<path d="M2420 342 c-65 -32 -43 -103 26 -86 34 9 67 61 53 86 -12 23 -34 23
-79 0z"/>
<path d="M3277 342 c-41 -45 -5 -158 43 -132 26 14 46 83 34 118 -12 34 -53
41 -77 14z"/>
<path d="M5001 343 c-7 -15 -5 -27 9 -51 34 -55 101 -54 108 1 4 29 -24 53
-75 63 -25 5 -33 2 -42 -13z"/>
<path d="M3397 322 c-17 -19 -23 -85 -11 -116 8 -21 47 -20 66 2 34 38 39 60
24 97 -17 40 -52 48 -79 17z"/>
<path d="M1674 263 c-34 -6 -60 -41 -48 -60 26 -42 100 -38 124 6 8 17 7 24
-10 41 -20 20 -26 21 -66 13z"/>
<path d="M5635 236 c-23 -17 -14 -43 21 -56 32 -13 26 -35 -9 -35 -30 1 -36
-10 -11 -19 22 -8 54 11 54 34 0 11 -12 25 -27 32 -36 17 -35 31 2 38 25 5 27
7 12 13 -23 9 -20 9 -42 -7z"/>
<path d="M5830 243 c-38 -15 -42 -84 -6 -108 32 -21 56 -10 56 26 0 29 -22 41
-35 19 -3 -5 1 -10 9 -10 9 0 16 -7 16 -16 0 -20 -39 -15 -53 7 -5 9 -7 28 -3
44 6 23 11 27 36 23 32 -5 41 6 14 16 -9 3 -16 6 -17 5 -1 0 -9 -3 -17 -6z"/>
<path d="M6106 234 c-3 -9 -5 -37 -4 -62 1 -41 2 -42 5 -12 3 19 10 38 16 42
9 6 8 10 -2 17 -11 7 -10 11 5 20 16 9 16 10 3 11 -9 0 -20 -7 -23 -16z"/>
<path d="M5711 233 c-2 -26 24 -103 34 -103 5 0 17 25 26 55 9 30 13 55 9 55
-4 0 -13 -21 -20 -47 l-12 -48 -18 50 c-10 28 -19 44 -19 38z"/>
<path d="M6148 227 c-3 -6 -3 -31 0 -54 3 -32 8 -43 21 -42 10 0 11 2 4 6 -17
6 -17 60 -1 65 9 3 8 9 -4 21 -11 12 -17 13 -20 4z"/>
<path d="M5911 206 c-7 -8 -11 -27 -9 -43 2 -22 9 -29 28 -30 25 -3 25 -3 3 7
-29 12 -31 50 -3 57 11 3 17 9 14 14 -8 13 -20 11 -33 -5z"/>
<path d="M6030 210 c0 -5 7 -10 15 -10 22 0 18 -17 -5 -23 -12 -3 -20 -14 -20
-25 0 -22 16 -31 43 -24 20 5 24 61 5 80 -15 15 -38 16 -38 2z m40 -50 c0 -12
-28 -25 -36 -17 -9 9 6 27 22 27 8 0 14 -5 14 -10z"/>
<path d="M6206 204 c-21 -20 -20 -37 2 -64 15 -19 22 -21 38 -12 17 10 17 11
-8 12 -18 0 -28 5 -28 15 0 9 9 15 25 15 27 0 33 18 13 38 -16 16 -23 15 -42
-4z m34 -15 c0 -5 -7 -9 -15 -9 -15 0 -20 12 -9 23 8 8 24 -1 24 -14z"/>
<path d="M6343 213 c-20 -8 -15 -41 7 -48 27 -9 25 -25 -2 -25 -18 0 -20 -2
-9 -9 20 -13 41 -2 41 21 0 12 -9 22 -20 25 -25 7 -20 29 5 25 10 -2 14 1 10
7 -7 12 -13 12 -32 4z"/>
<path d="M5971 168 c2 -34 3 -37 6 -13 2 17 12 36 21 43 14 11 13 12 -6 12
-19 0 -22 -5 -21 -42z"/>
<path d="M6281 168 c2 -34 3 -37 6 -13 2 17 12 36 21 43 14 11 13 12 -6 12
-19 0 -22 -5 -21 -42z"/>
</g>
</svg>
